<svg width="460" height="67" viewBox="0 0 460 67" fill="none" xmlns="http://www.w3.org/2000/svg">
<g clip-path="url(#clip0_2_400)">
<path d="M63.6234 33.3121C63.6234 15.1363 78.2119 0.437134 96.4526 0.437134C114.821 0.437134 129.413 15.1445 129.413 33.3121C129.413 51.3531 114.821 66.3218 96.4526 66.3218C78.2119 66.3218 63.6234 51.3367 63.6234 33.3121ZM113.65 33.3121C113.65 24.2262 105.963 16.2066 96.4526 16.2066C87.0734 16.2066 79.3868 24.2262 79.3868 33.3121C79.3868 42.5327 87.0734 50.5523 96.4526 50.5523C105.979 50.5523 113.65 42.5327 113.65 33.3121ZM394.68 33.8473C394.68 13.9352 410.443 0.437134 424.777 0.437134C434.547 0.437134 440.15 3.50933 443.926 9.39226L445.427 1.63006H460.08V65.1166H445.427L443.536 58.5801C439.238 63.3926 433.893 66.3423 424.777 66.3423C410.706 66.3218 394.68 53.6245 394.68 33.8473ZM444.706 33.7124C444.671 24.1008 436.952 16.2128 427.581 16.2128C418.186 16.2128 410.455 24.1429 410.455 33.7798V33.8473C410.455 42.6676 418.142 50.5523 427.525 50.5523C437.024 50.5523 444.706 42.6676 444.706 33.7124ZM376.674 8.9878V1.63415H360.652V65.1166H376.674V30.9099C376.674 20.6188 381.629 15.2752 390.215 15.2752C390.785 15.2752 391.327 15.316 391.856 15.3691L394.827 0.044939C386.476 0.089878 380.422 3.02726 376.674 8.9878ZM215.666 8.99189V1.63823L199.644 1.675L199.779 65.1493L215.802 65.1126L215.714 30.9099C215.69 20.6229 220.633 15.267 229.227 15.2466C229.775 15.2482 230.323 15.2797 230.868 15.3405L233.823 0C225.46 0.0694512 219.398 3.01909 215.666 8.99189ZM134.965 40.5268V1.63823H150.984V38.525C150.984 46.6753 155.412 51.4879 163.099 51.4879C171.697 51.4879 176.64 46.1401 176.64 35.8491V1.63823H192.666V65.1166H176.652V57.763C172.876 63.7766 166.751 66.7181 158.284 66.7181C143.954 66.7222 134.965 56.0308 134.965 40.5268ZM290.983 33.3856C291.019 15.6102 303.421 0.400366 323.091 0.437134C341.332 0.473902 354.2 15.4631 354.156 33.1201C354.16 34.8657 354.025 36.609 353.758 38.333L306.599 38.2431C308.407 45.8623 314.521 51.3531 323.772 51.3735C329.372 51.3735 335.37 49.2573 339.026 44.4529L349.954 53.4407C344.335 61.5828 334.422 66.3749 323.876 66.3545C305.257 66.2891 290.951 51.9618 290.983 33.3856ZM338.026 26.7918C337.126 20.3778 330.622 15.4182 322.936 15.4059C315.508 15.4059 309.51 19.9243 307.153 26.7346L338.026 26.7918ZM233.919 51.2795L248.161 43.6317C250.515 48.8651 255.222 51.9495 261.893 51.9495C268.039 51.9495 270.392 49.9395 270.392 47.1206C270.392 36.9072 236.655 43.0965 236.655 19.7487C236.655 6.87159 247.639 0.0326829 261.236 0.0326829C271.567 0.0326829 280.719 4.72677 285.69 13.4449L271.575 21.105C269.484 16.8113 265.561 14.3968 260.591 14.3968C255.756 14.3968 253.398 16.1413 253.398 19.0909C253.398 29.0184 287.136 22.7146 287.136 46.4629C287.136 58.8048 277.33 66.3137 261.507 66.3137C248.038 66.3014 238.623 61.7421 233.919 51.2795ZM0 33.3121C0 15.0055 14.5886 0.302317 32.8293 0.302317C43.9597 0.222244 54.4082 5.91438 60.5766 15.4182L46.9001 23.5562C45.3168 21.2373 43.2103 19.3456 40.7602 18.0424C38.3101 16.7392 35.5891 16.0631 32.8293 16.0718C23.45 16.0718 15.7635 24.0914 15.7635 33.3121C15.7635 42.5327 23.45 50.5523 32.8293 50.5523C35.7192 50.57 38.5654 49.8283 41.0968 48.3981C43.6281 46.9678 45.7604 44.8965 47.2904 42.3816L60.8315 50.6667C54.7352 60.4532 44.1433 66.3672 32.8213 66.3055C14.5886 66.3218 0 51.3367 0 33.3121Z" fill="white"/>
</g>
<defs>
<clipPath id="clip0_2_400">
<rect width="460" height="67" fill="white"/>
</clipPath>
</defs>
</svg>
